<?xml version="1.0" encoding="iso-8859-1"?>
<!-- Uploaded to: SVG Repo, www.svgrepo.com, Generator: SVG Repo Mixer Tools -->
<svg version="1.1" id="Layer_1" xmlns="http://www.w3.org/2000/svg" xmlns:xlink="http://www.w3.org/1999/xlink" 
	 viewBox="0 0 511.988 511.988" xml:space="preserve">
<path style="fill:#E6E9ED;" d="M448.732,386.367l-1.812-0.531c-26.5-7.094-35.438-13.938-47.217-18.406
	c-41.812-15.938-63.342-27.405-66.123-32.843c-0.094-0.188-0.188-0.406-0.25-0.594l-0.344-48.561l-88.458-1.125l-88.466,1.125
	l-0.344,48.561c-0.094,0.188-0.172,0.406-0.281,0.594c-2.781,5.438-24.312,16.905-66.123,32.843
	c-11.781,4.469-20.718,11.312-47.186,18.406l-1.812,0.531c-24.093,7.968-40.311,30.311-40.311,55.529v70.091h244.523h244.484
	v-70.091C489.012,416.678,472.824,394.335,448.732,386.367z"/>
<path style="fill:#EAC6BB;" d="M382.047,191.498c0,89.372-85.186,171.619-137.519,171.619c-52.374,0-137.558-82.247-137.558-171.619
	S168.561,43.159,244.528,43.159C320.486,43.159,382.047,102.126,382.047,191.498z"/>
<path style="fill:#965353;" d="M329.611,28.409c-23.406-21.187-104.646-51.623-180.018,0C90.158,69.127,96.158,171.78,96.158,171.78
	s77.998,19.718,167.307-31.312c57.74-32.999,77.863,0.562,88.207,29.78c10.094,28.437,30.375,21.25,30.375,21.25
	S404.451,96.188,329.611,28.409z"/>
<path style="fill:#7F4242;" d="M303.767,126.844c8.188-0.25,15.031,1.531,20.812,4.75c11.094-40.249,32.967-51.092,42.498-53.936
	c-3.125-6.25-6.719-12.531-10.906-18.718C340.58,65.064,315.924,81.751,303.767,126.844z"/>
<g>
	<path style="fill:#434A54;" d="M255.996,437.553c0,5.906-4.781,10.688-10.671,10.688c-5.891,0-10.671-4.781-10.671-10.688
		c0-5.875,4.781-10.656,10.671-10.656C251.215,426.896,255.996,431.678,255.996,437.553z"/>
	<path style="fill:#434A54;" d="M255.996,479.988c0,5.906-4.781,10.688-10.671,10.688c-5.891,0-10.671-4.781-10.671-10.688
		c0-5.875,4.781-10.656,10.671-10.656C251.215,469.332,255.996,474.113,255.996,479.988z"/>
	<path style="fill:#434A54;" d="M146.781,341.712c-10.218,6.219-29.187,14.937-57.467,25.718c-0.188,0.062-0.375,0.125-0.562,0.219
		c-2.406,24.624-6.765,84.591,0.203,144.339h99.7c-23.593-97.466-21.812-175.338-21.812-175.338L146.781,341.712z"/>
	<path style="fill:#434A54;" d="M342.203,341.712c10.188,6.219,29.188,14.937,57.438,25.718c0.188,0.062,0.375,0.125,0.594,0.219
		c2.373,24.624,6.748,84.591-0.219,144.339h-99.717c23.625-97.466,21.812-175.338,21.812-175.338L342.203,341.712z"/>
</g>
<path style="fill:#DA4453;" d="M335.611,317.932c-18.656-3.031-91.099,29.999-91.099,29.999s-68.326-37.468-91.091-29.968
	c-22.765,7.469-18.64,101.871,0,104.902s91.091-29.968,91.091-29.968s68.318,37.468,91.099,29.968
	C358.39,415.365,354.234,320.963,335.611,317.932z"/>
<path style="fill:#ED5564;" d="M277.988,363.305c0,19.25-14.992,41.967-33.476,41.967s-33.468-22.717-33.468-41.967
	c0-19.249,14.984-27.78,33.468-27.78S277.988,344.056,277.988,363.305z"/>
<path style="fill:#EAC6BB;" d="M382.047,191.498c0,89.372-85.186,171.619-137.519,171.619c-52.374,0-137.558-82.247-137.558-171.619
	S168.561,43.159,244.528,43.159C320.486,43.159,382.047,102.126,382.047,191.498z"/>
<path style="fill:#965353;" d="M329.611,28.409c-23.406-21.187-104.646-51.623-180.018,0C90.158,69.127,96.158,171.78,96.158,171.78
	s77.998,19.718,167.307-31.312c57.74-32.999,77.863,0.562,88.207,29.78c10.094,28.437,30.375,21.25,30.375,21.25
	S404.451,96.188,329.611,28.409z"/>
<path style="fill:#7F4242;" d="M303.767,126.844c8.188-0.25,15.031,1.531,20.812,4.75c11.094-40.249,32.967-51.092,42.498-53.936
	c-3.125-6.25-6.719-12.531-10.906-18.718C340.58,65.064,315.924,81.751,303.767,126.844z"/>
<rect x="426.642" y="447.994" style="fill:#5D9CEC;" width="85.34" height="31.998"/>
<rect x="426.642" y="415.994" style="fill:#FFCE54;" width="85.34" height="32"/>
<rect x="426.642" y="384.224" style="fill:#5D9CEC;" width="85.34" height="31.998"/>
<rect x="426.642" y="352.224" style="fill:#A0D468;" width="85.34" height="32"/>
<rect x="426.642" y="320.224" style="fill:#AC92EB;" width="85.34" height="31.998"/>
<rect x="330.642" y="447.994" style="fill:#A0D468;" width="85.34" height="31.998"/>
<rect x="330.642" y="415.994" style="fill:#ED5564;" width="85.34" height="32"/>
<rect x="330.642" y="384.224" style="fill:#AC92EB;" width="85.34" height="31.998"/>
<rect x="426.642" y="479.984" style="fill:#ED5564;" width="85.34" height="31.999"/>
<rect x="330.642" y="479.984" style="fill:#48CFAD;" width="85.34" height="31.999"/>
</svg>