<?xml version="1.0" encoding="iso-8859-1"?>
<!-- Uploaded to: SVG Repo, www.svgrepo.com, Generator: SVG Repo Mixer Tools -->
<svg version="1.1" id="Layer_1" xmlns="http://www.w3.org/2000/svg" xmlns:xlink="http://www.w3.org/1999/xlink" 
	 viewBox="0 0 512 512" xml:space="preserve">
<polyline style="fill:#FCBB3B;" points="296.751,403.331 296.751,331.233 424.229,331.233 424.229,403.331 "/>
<rect x="296.333" y="331.672" style="fill:#BD8C2C;" width="23.969" height="71.907"/>
<rect x="312.32" y="283.742" style="fill:#75C0C7;" width="47.938" height="47.938"/>
<rect x="336.279" y="331.672" style="fill:#FFFFFF;" width="47.938" height="31.959"/>
<g>
	<polygon style="fill:#E0DCCD;" points="448.261,403.331 448.261,268.539 360.49,268.539 360.49,331.233 424.229,331.233 
		424.229,403.331 	"/>
	<polygon style="fill:#E0DCCD;" points="272.718,403.331 272.718,260.18 144.196,260.18 144.196,323.918 176.588,323.918 
		176.588,403.331 	"/>
</g>
<g>
	<rect x="360.249" y="267.755" style="fill:#A8A59A;" width="23.969" height="63.916"/>
	<rect x="144.53" y="259.772" style="fill:#A8A59A;" width="23.969" height="63.916"/>
</g>
<g>
	<rect x="216.44" y="331.672" style="fill:#75C0C7;" width="55.923" height="47.938"/>
	<rect x="192.47" y="259.772" style="fill:#75C0C7;" width="31.959" height="23.969"/>
</g>
<g>
	<polyline style="fill:#FCBB3B;" points="80.615,403.582 80.615,323.685 176.492,323.685 176.492,403.582 	"/>
	<rect x="272.718" y="155.69" style="fill:#FCBB3B;" width="127.478" height="55.38"/>
</g>
<rect x="80.614" y="323.688" style="fill:#BD8C2C;" width="31.959" height="79.893"/>
<polyline style="fill:#E0DCCD;" points="112.849,323.918 112.849,355.265 144.196,355.265 144.196,323.918 "/>
<rect x="272.363" y="155.899" style="fill:#BD8C2C;" width="15.98" height="55.923"/>
<polyline style="fill:#FFFFFF;" points="312.424,155.69 312.424,179.722 360.49,179.722 360.49,155.69 "/>
<g>
	<polygon style="fill:#75C0C7;" points="448.261,211.069 448.261,76.278 304.065,76.278 304.065,155.69 400.196,155.69 
		400.196,211.069 	"/>
	<polyline style="fill:#75C0C7;" points="159.869,211.069 159.869,131.657 272.718,131.657 272.718,211.069 	"/>
</g>
<g>
	<rect x="304.327" y="76.006" style="fill:#589095;" width="39.946" height="79.893"/>
	<rect x="160.517" y="131.929" style="fill:#589095;" width="23.969" height="79.893"/>
</g>
<rect x="160.517" y="155.899" style="fill:#FFFFFF;" width="31.959" height="31.959"/>
<polygon style="fill:#FCBB3B;" points="224.429,131.933 224.429,60.025 72.626,60.025 72.626,211.829 160.512,211.829 
	160.512,131.933 "/>
<rect x="120.56" y="60.029" style="fill:#E0DCCD;" width="55.923" height="31.959"/>
<rect x="32.674" y="211.832" style="fill:#4BAF78;" width="447.425" height="23.969"/>
<rect x="32.674" y="211.832" style="fill:#1E834E;" width="159.796" height="23.969"/>
<rect x="32.674" y="403.581" style="fill:#4BAF78;" width="447.425" height="23.969"/>
<rect x="72.62" y="60.029" style="fill:#BD8C2C;" width="31.959" height="151.803"/>
<rect x="32.674" y="403.581" style="fill:#1E834E;" width="159.796" height="23.969"/>
<polyline style="fill:#4BAF78;" points="472.294,444.082 472.294,499.461 503.641,499.461 503.641,11.494 472.294,11.494 
	472.294,195.396 "/>
<polyline style="fill:#1E834E;" points="40.751,195.396 40.751,11.494 8.359,11.494 8.359,499.461 40.751,499.461 40.751,444.082 
	"/>
<rect x="33.437" y="251.82" width="15.673" height="135.837"/>
<rect x="463.935" y="251.82" width="15.673" height="135.837"/>
<path d="M456.62,395.746V260.18h-104.49V275.9h-47.652v48.018h-16.087v71.827h-8.359V251.82H136.882v56.424h15.673v-40.751h31.347
	v24.033h48.065v-24.033h32.392v56.424h-56.424v62.694h56.424v9.133h-80.031v-79.897H72.778v79.897H24.839v39.642h463.097v-39.642
	H456.62z M216.294,275.853h-16.718v-8.359h16.718V275.853z M320.153,291.574h7.945v8.312h15.673v-8.312h8.359v23.986h15.673v-39.706
	h73.143v15.673H407.51V307.2h33.437v88.546h-8.359v-71.827H320.153V291.574z M376.163,339.592v15.673h-32.392v-15.673H376.163z
	 M304.065,339.592h24.033v31.347h63.739v-31.347h25.078v56.154H304.065V339.592z M223.608,370.939v-31.347h40.751v8.359h-15.673
	v15.673h15.673v7.314H223.608z M120.163,331.522h16.718v16.429h-16.718V331.522z M88.452,331.522h16.038v32.102h48.065v-32.102h16.1
	v64.224H88.452V331.522z M472.264,419.715H40.513v-8.295h431.75v8.295H472.264z"/>
<rect x="328.098" y="124.343" width="24.033" height="15.673"/>
<path d="M456.62,203.993V68.963H296.751v71.053h15.673v-24.033h39.706V100.31h-39.706V84.637h128.522v119.357H407.51v-55.618
	H280.033v-24.033h-47.766V52.188H64.789v151.804h-39.95v39.642h463.097v-39.642H456.62V203.993z M319.739,164.049h32.392v7.314
	h-32.392V164.049z M280.033,164.049h24.033v22.988h63.739v-22.988h24.033v39.944H280.033V164.049z M264.359,140.016v24.033h-31.347
	v15.673h31.347v24.271h-96.131v-8.597h31.347v-47.02h-31.347v-8.359H264.359z M168.229,179.722v-15.673h15.673v15.673H168.229z
	 M128.522,67.862h39.706v16.775h-39.706V67.862z M80.462,67.862h32.387v32.448h71.053V67.862h32.691v56.481h-64.038v79.65H80.462
	V67.862z M472.264,227.962H40.513v-8.295h431.75v8.295H472.264z"/>
<rect x="97.176" y="131.657" width="39.706" height="15.673"/>
<rect x="97.176" y="155.69" width="22.988" height="15.673"/>
<rect x="64.784" y="19.853" style="fill:#E0DCCD;" width="383.478" height="15.673"/>
<polygon points="463.935,4.18 463.935,19.853 456.62,19.853 456.62,35.527 463.935,35.527 463.935,195.396 479.608,195.396 
	479.608,19.853 496.327,19.853 496.327,492.147 479.608,492.147 479.608,444.082 463.935,444.082 463.935,507.82 512,507.82 
	512,4.18 "/>
<polygon points="49.11,4.18 0,4.18 0,507.82 49.11,507.82 49.11,444.082 33.437,444.082 33.437,492.147 15.673,492.147 
	15.673,19.853 33.437,19.853 33.437,195.396 49.11,195.396 49.11,35.527 57.469,35.527 57.469,19.853 49.11,19.853 "/>
</svg>